<?xml version="1.0" encoding="iso-8859-1"?>
<!-- Generator: Adobe Illustrator 16.0.0, SVG Export Plug-In . SVG Version: 6.00 Build 0)  -->
<!DOCTYPE svg PUBLIC "-//W3C//DTD SVG 1.1//EN" "http://www.w3.org/Graphics/SVG/1.1/DTD/svg11.dtd">
<svg version="1.1" id="Capa_1" xmlns="http://www.w3.org/2000/svg" xmlns:xlink="http://www.w3.org/1999/xlink" x="0px" y="0px"
	 width="594.64px" height="594.639px" viewBox="0 0 594.64 594.639" style="enable-background:new 0 0 594.64 594.639;"
	 xml:space="preserve">
<g>
	<g>
		<path d="M0.5,178.862c0,32.059,26.082,58.14,58.14,58.14h34.562l180.511,239.485c5.39,7.15,12.475,13.043,20.489,17.037
			c8.014,3.996,16.983,6.107,25.939,6.107h215.856c32.059,0,58.141-26.082,58.141-58.141v-22.764
			c0-32.057-26.082-58.139-58.141-58.139H369.625l-180.51-239.485c-5.39-7.151-12.475-13.042-20.489-17.038
			c-8.015-3.995-16.983-6.107-25.939-6.107H58.64c-32.059,0-58.14,26.082-58.14,58.14V178.862z M43.34,156.099
			c0-8.45,6.85-15.3,15.3-15.3h84.046c4.803,0,9.327,2.255,12.218,6.09l188.774,250.447c2.892,3.836,7.415,6.092,12.218,6.092
			h180.104c8.449,0,15.3,6.85,15.3,15.299v22.764c0,8.449-6.851,15.301-15.3,15.301H320.143c-4.803,0-9.327-2.256-12.218-6.092
			L119.15,200.252c-2.891-3.835-7.415-6.09-12.218-6.09H58.64c-8.45,0-15.3-6.85-15.3-15.3V156.099z"/>
		<path d="M535.999,500.131H320.143c-9.034,0-18.081-2.13-26.163-6.16c-8.082-4.027-15.228-9.97-20.666-17.184L92.954,237.502H58.64
			c-32.334,0-58.64-26.306-58.64-58.64v-22.764c0-32.334,26.306-58.64,58.64-58.64h84.046c9.032,0,18.078,2.13,26.162,6.16
			c8.083,4.03,15.229,9.972,20.666,17.185l180.36,239.286h166.125c32.335,0,58.641,26.306,58.641,58.639v22.764
			C594.64,473.826,568.334,500.131,535.999,500.131z M58.64,98.458C26.857,98.458,1,124.315,1,156.098v22.764
			c0,31.783,25.857,57.64,57.64,57.64h34.812l0.15,0.199l180.511,239.485c5.345,7.091,12.369,12.932,20.313,16.891
			c7.944,3.961,16.836,6.055,25.716,6.055h215.856c31.783,0,57.641-25.857,57.641-57.641v-22.764
			c0-31.782-25.857-57.639-57.641-57.639H369.376l-0.15-0.199l-180.51-239.485c-5.344-7.089-12.368-12.93-20.313-16.892
			c-7.946-3.96-16.838-6.054-25.716-6.054H58.64z M536.001,457.292H320.143c-4.932,0-9.648-2.352-12.617-6.291L118.75,200.553
			c-2.78-3.689-7.199-5.891-11.819-5.891H58.64c-8.712,0-15.8-7.088-15.8-15.8v-22.763c0-8.712,7.088-15.8,15.8-15.8h84.046
			c4.932,0,9.649,2.351,12.617,6.29l188.774,250.447c2.781,3.689,7.199,5.893,11.818,5.893h180.104c8.712,0,15.8,7.087,15.8,15.799
			v22.764C551.801,450.204,544.713,457.292,536.001,457.292z M58.64,141.299c-8.161,0-14.8,6.639-14.8,14.8v22.763
			c0,8.161,6.639,14.8,14.8,14.8h48.292c4.932,0,9.649,2.351,12.618,6.29l188.775,250.447c2.78,3.689,7.198,5.893,11.818,5.893
			h215.858c8.16,0,14.8-6.64,14.8-14.801v-22.764c0-8.16-6.64-14.799-14.8-14.799H355.896c-4.931,0-9.647-2.352-12.617-6.291
			L154.505,147.19c-2.78-3.689-7.198-5.891-11.818-5.891H58.64z"/>
	</g>
	<g>
		<path d="M535.978,95.008L535.978,95.008h-0.005l-190.091,0.075c-15.604,0.006-30.251,6.109-41.242,17.184
			c-10.992,11.076-16.984,25.768-16.873,41.371l0,0.125l0.002,0.124l0.293,22.666c0.148,15.396,6.244,29.842,17.174,40.694
			c10.965,10.886,25.513,16.881,40.963,16.881l189.744-0.075c15.51-0.006,30.094-6.047,41.067-17.008
			c10.973-10.961,17.027-25.54,17.05-41.05l0.057-22.717v-0.024v-0.024c0.021-15.546-6.017-30.165-17.001-41.163
			C566.131,101.066,551.521,95.008,535.978,95.008z M551.219,175.932c-0.012,8.439-6.854,15.276-15.293,15.279l-189.721,0.075
			c-0.002,0-0.005,0-0.007,0c-8.406,0-15.239-6.783-15.299-15.19l-0.294-22.763c-0.061-8.49,6.804-15.406,15.294-15.41
			l190.071-0.075c0.001,0,0.005,0,0.006,0c8.458-0.001,15.312,6.862,15.3,15.321L551.219,175.932z"/>
		<path d="M346.199,234.627L346.199,234.627c-15.583,0-30.256-6.047-41.315-17.026c-11.02-10.942-17.171-25.519-17.321-41.044
			l-0.296-22.917c-0.112-15.735,5.932-30.554,17.019-41.725c11.086-11.171,25.858-17.326,41.597-17.332l190.091-0.075
			c15.682,0,30.418,6.11,41.497,17.204s17.169,25.838,17.147,41.517l-0.057,22.767c-0.022,15.643-6.13,30.347-17.196,41.402
			c-11.068,11.056-25.778,17.148-41.421,17.155L346.199,234.627z M535.978,95.508l-190.096,0.075
			c-15.47,0.006-29.99,6.056-40.888,17.036c-10.897,10.98-16.838,25.546-16.728,41.015l0.002,0.244l0.293,22.667
			c0.147,15.262,6.194,29.59,17.026,40.345c10.87,10.792,25.293,16.736,40.61,16.736l189.744-0.075
			c15.375-0.006,29.835-5.995,40.714-16.862c10.878-10.867,16.881-25.319,16.903-40.696l0.057-22.718
			c0.021-15.46-5.965-29.953-16.854-40.857C565.872,101.514,551.388,95.508,535.978,95.508z M346.205,191.786
			c-8.657,0-15.744-7.037-15.806-15.687l-0.294-22.76c-0.03-4.243,1.599-8.236,4.586-11.246c2.986-3.01,6.968-4.668,11.208-4.67
			l190.077-0.075c4.224,0,8.194,1.645,11.179,4.634c2.986,2.989,4.627,6.962,4.621,11.188l-0.058,22.764
			c-0.012,8.696-7.097,15.774-15.793,15.777L346.205,191.786z M535.971,137.848v0.5l-190.071,0.075
			c-3.972,0.001-7.7,1.555-10.499,4.375c-2.798,2.819-4.323,6.56-4.295,10.532l0.294,22.76c0.058,8.105,6.696,14.697,14.799,14.697
			l189.728-0.075c8.146-0.003,14.781-6.633,14.793-14.779l0.058-22.764c0.006-3.957-1.531-7.679-4.328-10.479
			c-2.796-2.8-6.515-4.341-10.472-4.341L535.971,137.848z"/>
	</g>
</g>
<g>
</g>
<g>
</g>
<g>
</g>
<g>
</g>
<g>
</g>
<g>
</g>
<g>
</g>
<g>
</g>
<g>
</g>
<g>
</g>
<g>
</g>
<g>
</g>
<g>
</g>
<g>
</g>
<g>
</g>
</svg>
