<?xml version="1.0" encoding="utf-8"?>
<!-- Generator: Adobe Illustrator 21.1.0, SVG Export Plug-In . SVG Version: 6.00 Build 0)  -->
<svg version="1.1" id="Layer_1" xmlns="http://www.w3.org/2000/svg" xmlns:xlink="http://www.w3.org/1999/xlink" x="0px" y="0px"
	 viewBox="0 0 16.5 6.5" style="enable-background:new 0 0 16.5 6.5;" xml:space="preserve">
<style type="text/css">
	.st0{fill:#E33F26;}
	.st1{fill:#253672;}
	.st2{fill:none;stroke:#253672;stroke-width:2;stroke-linecap:round;stroke-miterlimit:10;}
</style>
<title>logo-icon</title>
<g>
	<path class="st0" d="M16.3,1.1h-3.1c-0.1,0-0.2-0.1-0.2-0.2s0.1-0.2,0.2-0.2c0,0,0,0,0,0h3.1c0.1,0,0.2,0.1,0.2,0.2
		C16.5,1.1,16.4,1.1,16.3,1.1C16.3,1.1,16.3,1.1,16.3,1.1z"/>
	<path class="st0" d="M4.9,5.4H1.8c-0.1,0-0.2-0.1-0.2-0.2S1.7,5,1.8,5l0,0h3.1C5,5,5.1,5.1,5.1,5.2S5,5.4,4.9,5.4z"/>
	<circle class="st1" cx="8.1" cy="0.9" r="0.2"/>
	<circle class="st0" cx="8.1" cy="0.2" r="0.2"/>
	<circle class="st0" cx="15" cy="2.4" r="0.2"/>
	<circle class="st0" cx="4.1" cy="3.4" r="0.2"/>
	<path class="st2" d="M9.7,1.8"/>
	<path class="st1" d="M15.8,3.2h-4.6V2.6h3c0.1,0,0.2-0.1,0.2-0.2s-0.1-0.2-0.2-0.2h-3V1c0-0.6-0.4-1-1-1H8.7C8.6,0,8.5,0.1,8.5,0.2
		s0.1,0.2,0.2,0.2c0,0,0,0,0,0h1.6c0.3,0,0.5,0.2,0.5,0.5v0.4h-0.7c-0.1,0-0.2,0.1-0.2,0.2l0,0v1.6c0,0.3-0.2,0.5-0.5,0.5H6.6
		c-0.3,0-0.5-0.2-0.5-0.5l0,0V1.6c0-0.1-0.1-0.2-0.2-0.2H5.2V1c0-0.3,0.2-0.6,0.5-0.6c0,0,0,0,0,0h1.6c0.1,0,0.2-0.1,0.2-0.2
		C7.6,0.1,7.5,0,7.4,0H5.8c-0.6,0-1,0.4-1,1v1.4H1.6c-0.1,0-0.2,0.1-0.2,0.2s0.1,0.2,0.2,0.2h3.2V4H0.2C0.1,4,0,4.1,0,4.2
		s0.1,0.2,0.2,0.2h4.6v1c0,0.6,0.4,1,1,1C5.9,6.5,6,6.4,6,6.3S5.9,6,5.8,6C5.5,6,5.3,5.8,5.3,5.5V1.8h0.5v1.4c0,0.5,0.4,0.9,0.9,0.9
		c0,0,0,0,0,0h2.8c0.5,0,0.9-0.4,0.9-0.9V1.8h0.5v3.6c0,0.3-0.2,0.5-0.5,0.5c-0.1,0-0.2,0.1-0.2,0.2s0.1,0.2,0.2,0.2
		c0.6,0,1-0.4,1-1V3.6h4.6c0.1,0,0.2-0.1,0.2-0.2S16,3.2,15.8,3.2L15.8,3.2z"/>
	<path class="st0" d="M7.4,1.1H6.6c-0.1,0-0.2-0.1-0.2-0.2c0-0.1,0.1-0.2,0.2-0.2h0.8c0.1,0,0.2,0.1,0.2,0.2S7.5,1.1,7.4,1.1
		C7.4,1.1,7.4,1.1,7.4,1.1z"/>
	<path class="st0" d="M9.5,1.1H8.7c-0.1,0-0.2-0.1-0.2-0.2c0-0.1,0.1-0.2,0.2-0.2h0.8c0.1,0,0.2,0.1,0.2,0.2S9.6,1.1,9.5,1.1
		C9.5,1.1,9.5,1.1,9.5,1.1z"/>
	<path class="st0" d="M9.5,1.8H6.6c-0.1,0-0.2-0.1-0.2-0.2c0-0.1,0.1-0.2,0.2-0.2h2.8c0.1,0,0.2,0.1,0.2,0.2S9.6,1.8,9.5,1.8
		C9.5,1.8,9.5,1.8,9.5,1.8z"/>
</g>
</svg>
