<svg id="Layer_1" data-name="Layer 1" xmlns="http://www.w3.org/2000/svg" viewBox="0 0 78.38 43.12"><defs><style>.cls-1{fill:#e33f26;}.cls-2{fill:#253672;}.cls-3{fill:none;stroke:#253672;stroke-linecap:round;stroke-miterlimit:10;stroke-width:2px;}</style></defs><title>ma3app-logo</title><path class="cls-1" d="M77.38,5.47H62.9a1,1,0,0,1,0-2H77.38a1,1,0,0,1,0,2Z"/><path class="cls-1" d="M23.14,25.65H8.67a1,1,0,0,1,0-2H23.14a1,1,0,0,1,0,2Z"/><circle class="cls-2" cx="30.49" cy="25.41" r="1.65"/><circle class="cls-2" cx="45.81" cy="25.41" r="1.65"/><circle class="cls-2" cx="38.18" cy="4.47" r="0.89"/><circle class="cls-1" cx="38.21" cy="1" r="0.89"/><circle class="cls-1" cx="71.03" cy="11.3" r="0.89"/><circle class="cls-1" cx="19.19" cy="16.05" r="0.89"/><path class="cls-3" d="M45.81,8.3"/><path class="cls-2" d="M15.63,33h.69v1.27a2.63,2.63,0,0,1,2.38-1.44,2.56,2.56,0,0,1,2.41,1.54,2.83,2.83,0,0,1,2.57-1.54,2.68,2.68,0,0,1,2.74,3v4.32h-.69V35.89c0-1.54-.8-2.44-2.11-2.44A2.3,2.3,0,0,0,21.37,36v4.16h-.69V35.85c0-1.48-.81-2.39-2.08-2.39A2.41,2.41,0,0,0,16.32,36v4.11h-.69Z"/><path class="cls-2" d="M26.82,38.06v0c0-1.48,1.27-2.32,3.12-2.32A8.55,8.55,0,0,1,32.3,36v-.31A2.05,2.05,0,0,0,30,33.53a4.78,4.78,0,0,0-2.24.57l-.25-.6A5.74,5.74,0,0,1,30,32.88a3.08,3.08,0,0,1,2.25.78,2.71,2.71,0,0,1,.73,2v4.45H32.3V38.94a3.24,3.24,0,0,1-2.73,1.36C28.24,40.3,26.82,39.54,26.82,38.06Zm5.5-.6v-.81a9.49,9.49,0,0,0-2.42-.32c-1.51,0-2.35.67-2.35,1.67v0c0,1,1,1.64,2.07,1.64A2.45,2.45,0,0,0,32.32,37.46Z"/><path class="cls-2" d="M44.21,38.06v0c0-1.48,1.27-2.32,3.12-2.32A8.55,8.55,0,0,1,49.7,36v-.31a2.05,2.05,0,0,0-2.35-2.18,4.78,4.78,0,0,0-2.24.57l-.25-.6a5.74,5.74,0,0,1,2.53-.62,3.08,3.08,0,0,1,2.25.78,2.71,2.71,0,0,1,.73,2v4.45H49.7V38.94A3.24,3.24,0,0,1,47,40.3C45.64,40.3,44.21,39.54,44.21,38.06Zm5.5-.6v-.81a9.49,9.49,0,0,0-2.42-.32c-1.51,0-2.35.67-2.35,1.67v0c0,1,1,1.64,2.07,1.64A2.45,2.45,0,0,0,49.71,37.46Z"/><path class="cls-2" d="M51,33h.69v1.59a3.44,3.44,0,0,1,2.94-1.76,3.54,3.54,0,0,1,3.47,3.71v0a3.57,3.57,0,0,1-3.47,3.74,3.43,3.43,0,0,1-2.94-1.71v3.78H51Zm6.35,3.6v0a2.87,2.87,0,0,0-2.8-3.08,3,3,0,0,0-2.91,3.06v0a3,3,0,0,0,2.91,3.06A2.79,2.79,0,0,0,57.37,36.59Z"/><path class="cls-2" d="M58.43,33h.69v1.59a3.44,3.44,0,0,1,2.94-1.76,3.54,3.54,0,0,1,3.47,3.71v0a3.57,3.57,0,0,1-3.47,3.74,3.43,3.43,0,0,1-2.94-1.71v3.78h-.69Zm6.35,3.6v0A2.87,2.87,0,0,0,62,33.48a3,3,0,0,0-2.91,3.06v0A3,3,0,0,0,62,39.64,2.79,2.79,0,0,0,64.78,36.59Z"/><path class="cls-1" d="M38.25,30.78q3.25,0,4.35,2.42a2.83,2.83,0,0,1,.19,1v.11a3.05,3.05,0,0,1-1.36,2.61,3.05,3.05,0,0,1,1.36,2.61v.11Q42.8,42,40,42.89a6.59,6.59,0,0,1-1.7.23,5,5,0,0,1-4.2-1.82L34,40.92q.18-.91.91-.91.42,0,1.06.72a4.7,4.7,0,0,0,2.31.61,3.35,3.35,0,0,0,2.46-.87,1.43,1.43,0,0,0,.3-.87q0-1.23-1.67-1.55t-1.63-.53A.75.75,0,0,1,37.5,37v-.08q0-.83,1.32-.95,2.08-.44,2.08-1.1c.06,0,.09-.21.11-.64q0-1.29-2.27-1.63l-.49,0a3.55,3.55,0,0,0-2.91,1.21l-.45.11Q34,33.7,34,33q0-1,2.23-1.89A7.7,7.7,0,0,1,38.25,30.78Z"/><path class="cls-2" d="M75,15.05H53.28V12.3h14a1,1,0,0,0,0-2h-14V4.54A4.55,4.55,0,0,0,48.74,0H41.32a1,1,0,0,0,0,2h7.42a2.54,2.54,0,0,1,2.54,2.54v2.1H48a1,1,0,0,0-1,1v7.76a2.28,2.28,0,0,1-2.28,2.28H31.47a2.28,2.28,0,0,1-2.28-2.28V7.64a1,1,0,0,0-1-1H24.8V4.54A2.55,2.55,0,0,1,27.34,2H35a1,1,0,0,0,0-2H27.34A4.55,4.55,0,0,0,22.8,4.54v6.64h-15a1,1,0,1,0,0,2h15v5.7H1a1,1,0,0,0,0,2H22.8v5a4.55,4.55,0,0,0,4.54,4.54,1,1,0,0,0,0-2,2.55,2.55,0,0,1-2.54-2.54V8.64H27.2v6.76a4.28,4.28,0,0,0,4.28,4.28H44.75A4.28,4.28,0,0,0,49,15.39V8.64h2.25v17.3a2.54,2.54,0,0,1-2.54,2.54,1,1,0,0,0,0,2,4.55,4.55,0,0,0,4.54-4.54V17.05H75a1,1,0,0,0,0-2Z"/><path class="cls-1" d="M35,5.47H31.46a1,1,0,0,1,0-2H35a1,1,0,0,1,0,2Z"/><path class="cls-1" d="M44.83,5.47H41.29a1,1,0,0,1,0-2h3.54a1,1,0,0,1,0,2Z"/><path class="cls-1" d="M44.83,8.64H31.39a1,1,0,0,1,0-2H44.83a1,1,0,0,1,0,2Z"/></svg>